/* XPM */
static char *bitcoin128[] = {
/* columns rows colors chars-per-pixel */
"128 128 92 1 ",
"  c #ACBB3F686FC3",
". c #A1B82A2B7388",
"X c #A7B42BF37807",
"o c #ABCD2D157B03",
"O c #B1412EBA7F0F",
"+ c #A642331D71CC",
"@ c #A86A37467106",
"# c #AA0839AF70FA",
"$ c #B40934897DA2",
"% c #AE8142B06F40",
"& c #B0FA47BB6E4C",
"* c #B3254CDD6CD4",
"= c #B688548C6ACF",
"- c #BAA75C5C696C",
"; c #ADF940BA7015",
": c #BC624FB67381",
"> c #BEF665B56732",
", c #BFB467FB665E",
"< c #C0D668C966E7",
"1 c #C4C76B5C68E6",
"2 c #C9786F996A83",
"3 c #C77B70F867DC",
"4 c #CB327680679A",
"5 c #CD397BE165FA",
"6 c #C97672A6687D",
"7 c #D5426F1875D6",
"8 c #E82B7C227F10",
"9 c #E88B7E257DF6",
"0 c #D2DD8DF75F48",
"q c #D6EF96545D62",
"w c #D808992C5C95",
"e c #DAC49EF05B5A",
"r c #DD43A3D75A4F",
"t c #DED9A87058AB",
"y c #E342AC335A57",
"u c #EB74BD2156E7",
"i c #E82DB26A5AD7",
"p c #EFD2B6EA5EE9",
"a c #EFFABAA95CB8",
"s c #F0C0B8295EEF",
"d c #F0D2BD875BA4",
"f c #D06B850B62F7",
"g c #D39D8D666052",
"h c #EB9097B76FD5",
"j c #EC9B9C766DBA",
"k c #EAA28CED761E",
"l c #E71682B8799D",
"z c #E97984277AE3",
"x c #EA1B88837890",
"c c #EBB5951D71AB",
"v c #E309A0206223",
"b c #EDDBA74D6796",
"n c #EEE0AC1F653B",
"m c #ED5FA2E56A19",
"M c #EF87B2986196",
"N c #F3F8D4EF4F41",
"B c #F56BD8944E1A",
"V c #ED89C3CE5456",
"C c #EFABCA2E5235",
"Z c #F20BC64256F9",
"A c #F2CBCCA8537A",
"S c #F177C25A5918",
"D c #F3C9D27C5089",
"F c #B3552F53809A",
"G c #B6D4305C8330",
"H c #BACA318A8627",
"J c #BE8932B388D1",
"K c #C357342A8C79",
"L c #C85F35A58FE9",
"P c #CB9E36C69294",
"I c #CF8837EC956C",
"U c #D1AF37A797BB",
"Y c #D173388B96E5",
"T c #D64B3A119A86",
"R c #DB513BB19E34",
"E c #DFDC3D1DA1B1",
"W c #E0813D6AA21B",
"Q c #CA1440C88A47",
"! c #DD9A49EE966F",
"~ c #E04D4024A007",
"^ c #E4805E2A8FA2",
"/ c #E2624F1597C7",
"( c #E0E443B29E0A",
") c #E1F04B8499B6",
"_ c #E31253FB951F",
"` c #E3E559F491DF",
"' c #E6576DD386DD",
"] c #E52063138CEE",
"[ c #E5AE696B8932",
"{ c #E73073F98380",
"} c #E7D778E380FC",
"| c None",
/* pixels */
"||||||||||||||||||||||||||||||||||||||||||||||||||||||||||||||||||||||||||||||||||||||||||||||||||||||||||||||||||||||||||||||||",
"||||||||||||||||||||||||||||||||||||||||||||||||||||||||||||||||||||||||||||||||||||||||||||||||||||||||||||||||||||||||||||||||",
"||||||||||||||||||||||||||||||||||||||||||||||||||||||||||||||||||||||||||||||||||||||||||||||||||||||||||||||||||||||||||||||||",
"||||||||||||||||||||||||||||||||||||||||||||||||||||||||||||||||||||||||||||||||||||||||||||||||||||||||||||||||||||||||||||||||",
"||||||||||||||||||||||||||||||||||||||||||||||||||||||||||||||||||||||||||||||||||||||||||||||||||||||||||||||||||||||||||||||||",
"||||||||||||||||||||||||||||||||||||||||||||||||||||||...................|||||||||||||||||||||||||||||||||||||||||||||||||||||||",
"|||||||||||||||||||||||||||||||||||||||||||||||||.............................||||||||||||||||||||||||||||||||||||||||||||||||||",
"||||||||||||||||||||||||||||||||||||||||||||||....................................||||||||||||||||||||||||||||||||||||||||||||||",
"|||||||||||||||||||||||||||||||||||||||||||..........................................|||||||||||||||||||||||||||||||||||||||||||",
"||||||||||||||||||||||||||||||||||||||||................Xoo$GGHHHGGGOOoX...............|||||||||||||||||||||||||||||||||||||||||",
"||||||||||||||||||||||||||||||||||||||.............oGHLIUTERREEEERERTTTIPKGOX............|||||||||||||||||||||||||||||||||||||||",
"||||||||||||||||||||||||||||||||||||...........XGKPTREEWWEEEEEEEEEEWW~WWEERRILGo...........|||||||||||||||||||||||||||||||||||||",
"||||||||||||||||||||||||||||||||||..........XFJTTEEEEEEEEEEEEEEEEEEEEEEEEEEEE~ETPHo..........|||||||||||||||||||||||||||||||||||",
"|||||||||||||||||||||||||||||||||.........FJYR~~EEEE~EEEEEEEEEEEEEEEEEEEEEEEEEEEEETLG..........|||||||||||||||||||||||||||||||||",
"|||||||||||||||||||||||||||||||.........GKTEEEEEEEEEEEEEEEEEEEEEEEEEEEEEE~EEEEEEEEEERIGo........||||||||||||||||||||||||||||||||",
"||||||||||||||||||||||||||||||........FPTE~EEEEEEEEEEEEEEEEEEEEEEEEEEEEEEEEEEEEEEEEEEEEYHX........||||||||||||||||||||||||||||||",
"||||||||||||||||||||||||||||........FJTEEEEEEEEEEEEEEEEEEEEEEEEEEEEEEEEEEEEEEEEEEEEEEEEWEIG........|||||||||||||||||||||||||||||",
"|||||||||||||||||||||||||||.......XHEEEEEEEEEEEEEEEEEEEEEEEEEEEEEEEEEEEEEEEEEEEEEEEEEEEEE~ELF.......||||||||||||||||||||||||||||",
"||||||||||||||||||||||||||.......FIEEEEEEEEEEEEEEEEEEEEEEEEEEEEEEEEEEEEEEEEEEEEEEE~EEEEEEEEETJX.......||||||||||||||||||||||||||",
"|||||||||||||||||||||||||......XHEEEEEEEEEEEEEEEEEEEEEEEEEEEEEEEEE~EEEEEEEEEEEEEEEEEEEEEEEEEEEPo.......|||||||||||||||||||||||||",
"||||||||||||||||||||||||......oPEEE~EEEEEEEEEEEEEEEEEEEEEEEEEEEEEEEEE~EEEEEEEEEEEEEE~EEEEEEEEEETH.......||||||||||||||||||||||||",
"|||||||||||||||||||||||......OYEEEEEEEE~EEEEEEEEEEEEE~EEEE(!/_//)__)(~EEEEEEEEEEE~EEEEEEEEEEEEEERJX......|||||||||||||||||||||||",
"|||||||||||||||||||||.......HTEEEEEEEEEEEEEEEEEEEEEEE(`]}cmnaSSadSSMbmk}^/~EEEEEEEEEEEEEEEEEEEEEEEPX......||||||||||||||||||||||",
"|||||||||||||||||||||.....XJREEEEEEEEEEEEEEEEEEEE~/[kbSDDBBBNNNNNNNNBNDDApjz`(EEEEEEEEEE~EEEEEEEEEEPo......|||||||||||||||||||||",
"||||||||||||||||||||......KRWEEEE~EEEEEEEEEEEEE!]cMDNNNNNNNNNNNNNNNNNNNNNBNDVbz`~EEEEEEEEEEEEEEEEEEEYo......||||||||||||||||||||",
"|||||||||||||||||||.....XKRWWEEEWEEEEEEEEEEEE!{nCDNNNNNNNDNNNNNNDNNNNNNNNNNNBNDSh]~EEEEEEEEEEE~EEEEEEY$......|||||||||||||||||||",
"||||||||||||||||||.....XJRWEEEEEWEEEEEEEEEE){MDNBDBBNNNNNNNNNNNNNNNNNNNNNNNNNNNNDZj^~EEEEEEEEEEEEEEEEEUo......||||||||||||||||||",
"|||||||||||||||||......JREWEEEEEEEEEEEEEE~'nDNNNDBDDNNNNNNNNNNNNNNNNNNNDNNNNNNNNBBDZc`E~EEEEEEEEEEEEEEEIo.....||||||||||||||||||",
"||||||||||||||||......HRWEWWEEEEEEEEE~WW`jANNNNNNNNNNNNNNNNNNNNNNNNNNNNNNNNNNNNNDNNBNa}~EEEEEEEEEEEEEEEEPX.....|||||||||||||||||",
"||||||||||||||||.....$TEEEWWEEEEEEEEEW~'MNNNNNNNNNNNNNNNNNNNNNNNNNNNNNNNNNNNNNDNNNNDNBNm`EE~EEEEEEEEEEEEEK......||||||||||||||||",
"|||||||||||||||.....oYWEEEWWEEEEEEEEE)kDNNNNNNNNNNNNNNNNNNNDNNNNNNDNNNNNNNNNNNNNNNNNNNNNp{~~EEEEEEEEEEEEEEJ......|||||||||||||||",
"||||||||||||||.....XPEEEEE~RWEEEEEEE`bDNNNNNNNNNNNNNNNNNNNNNNNNNNNNNNNNNNNNNNNNNNNDBNNNNBCz~EEEEEEEEEEEEEET$.....|||||||||||||||",
"||||||||||||||.....JEEEEEEEEEEEEEEE]MNNNNNNNNNNDNNNNNNNNNNNNNNNNNNNNDNNNNNNNNNNNNNNNNNDNNNDc)EEEEEEEEEEEEEEIo.....||||||||||||||",
"|||||||||||||.....GTEE~EEEEEEEEEEE[pNNNNNNNNNNNNNNNNNDNNNNNNDNNNNNNNNNNNDNNNNNNNNNNNNNNNNNDDj)EEEEEEEEEEEEEEL.....||||||||||||||",
"||||||||||||.....XIEEEEEEEEEEEEE~[aBNNNNNNNNNNNNNNNNNNNNNNNNNNNNNNNNNNNNNNNNNNNDNNNNNNNNNNNNDm)EEEEEEEE~EEEWRG.....|||||||||||||",
"||||||||||||.....HEEEEEEEEEEEEEE]aNNNNNNNNNNNNNNNNNNNNNNNNNDNNNNNNNNNNNNNNNNNNNNNDNNNNNNNNDDBDj!EEEEEEEEEEEEEYX.....||||||||||||",
"|||||||||||.....oTEEEEEEEEEEEEE`MNNNDNNNNNNNNNNNNNNNNNNNNNNNNDNNNNNNNNNNNNNNNNNNNNNNNNNNNNNNNNAc(EEEEEEEEEEEEEK.....||||||||||||",
"|||||||||||.....LEEEEEEEEEEEEE)bNNNNNNNNNNNNNNNNNNNNNNNNNNNNNNNNNDNNNNNNNNNNNNNNNNNNNNNNNNNNNNNAzEEEEEEEEEEEEWTo.....|||||||||||",
"||||||||||.....OREEEEEEEEEEEE~cDNNNNNNNNNNNNNNNNNNNNNNNNNNNNNNNNNNNNNNNNNNNNNNNNNNNNNNNNDNNNNNNNS[EEEEEEEEEEEEEK.....|||||||||||",
"||||||||||.....LEEEEE~EE~EEEE{CDNNNNNNNNNNNNNDNNNNNNNNNNNNNNNNNNNNNNNNDNNNNNNNNNNNNNNNNNNNNNNNNNNM_EEEEEEEEEEEER$.....||||||||||",
"|||||||||.....OREEEEEEEEEEEE`pNNNNNNDNNNNNNNNNNNDDBBDBNNNNNNNNNNNNNNNNNNBDBNNNNNNNNNNNNNNNNNNNNNNNc(EEEEEEEEEEEEL.....||||||||||",
"|||||||||.....LEEEEEEEEEEEE~hNNNNNNNNNNNNNNNNNNNBDDDNNNNNNNNNNNNNNNNNNNNDDDNNNNNNNNNNNNNNNNNNDNNNNA'EEEEEEEEEEEETo....||||||||||",
"|||||||||....oTEEEEEEEEEEEW{ANNNNNNNNNNNDNNNNNNNDBDDNDBBNNNNNNNNNNNNNNNNDDDDNNNNNNNNNDNNNNNNNNNNNNNn)EEEEEEEEEEERK.....|||||||||",
"||||||||.....JREEEEEEEEEEE!nNNNNNNNNNNNNNNNNNDNNDBBDCZZZNNNNNNNBNNDNNNNDAZZADBNNDNNNNNNNNNNNNNNNNNND9EEEEEEEEEEEWUo....|||||||||",
"||||||||....oIEEEEEEEEEEEE{ANNNNNNNNNNNNNNNNNNNNDAb9^``^{hSNDBDDNNDDNZj}```^}bADNNNNNNNNNDNNNNNNNNNNs_EEEEEEEEEEWRH.....||||||||",
"||||||||....GREEEEEEEEEEE)MBNNNNNDNNNNNNNNNNNNNNS'!EEEEEE~`cADBDNDBAm^~EEEEEE(]MNNNDNNNNNNNNNNNNNNNNDzEEEEEEEEEEWWP.....||||||||",
"|||||||.....KEEEEEEEEEEEE}ADNNNNNNNNNNNNNNNNNNNBb(EEEEEEEEE~}ZDBNBCz~EEEEEEEEEEjBNNNNNNNNNNNNNNDNNNNNp_EEEEEEEEEEETo....||||||||",
"|||||||....oUEEEEEEEEEEE(nNBNNNNNNNNNNDNNNNNNNNNCz~EEEEEEEEEE'SBNZ}~EEEEEEEEE~}CNNNNNNNNNNNNNNNNNNNNNN9EEEEEEEEEEEEH....||||||||",
"|||||||....$!)/)))/))))){ANNNNNDNNNNNNNNNNNNNNNNNCz~~~EEEEEEEE]MZ'EEEEEEEEEE~}ZDNNNNNNNNNNNNNNNNNNNNNBn_)))/)))))))Q.....|||||||",
"||||||.....1ppppppppppppSNDNNNNNNNNNNNNNNNNNNNNNBDCx~~EEEEEEEEE]'EEEE~EEEEEE9CDBNNNNNNNNNNNNNNNNNNNNNNDpppppppppppsv ....|||||||",
"||||||....+eBNNNBNBNBNBNNNNNNNNNNNNNNNNNNNNNNNNNDNNNk(EEEEEEEEEEEEEEEEEEE~~zCNBDNNNNNNNNNNNNNNNNNNNNNNNNNBBNBNNBNNNA-....|||||||",
"||||||....%uBNNNNNNNNNNNNNNNNNNNNNNDNNNNNNNNNNNNBNBBDc!E~EEEEEEEEEEEEEEEE~xNBBNBNNNNNNNNNNNNNNNNNNNNNNNNNNNNNNNNNNNN4....|||||||",
"||||||....-CNNNNNNNNNNNNNNDNNNNDNNNNNNNNNNNNBDBDASMnnb'~EEEEEEEEEEE~EEEE~]mbnMSANNNNNNNNNNNNNNNNNNNNNNNNNNNNNNNNNNNBq+....||||||",
"||||||....4DNNNNNNNNNNNNNNNNNNNNNNNNNNNNNNNNDDAm{`)((((~EEEE~EEEEEEEEEEEE(((~!`'jZNNNNNNNNNNNNNNNNNNNNNNNNNNNNNDNNNBy@....||||||",
"|||||.....gNNNNNNNNNNNNNNNNNNNNNNNNNNNNNNNBDBM'(EEEEEEEEEEEEEEEEEEEEEEEEEEEEEEEE~[nNNNNNNNNNNNNDNNNNNNNNNNNNNNNNNNNNu&....||||||",
"|||||....+eNNNNNNNNNNNNNNNNNNNNNNNNNNNNNBDDDb`EEEEEEEEEEEEEEEEEEEEEEEEEEEEEEEEEEEE/jDNNNNNNNNNNNNNNNNNNNNNNNNNNNNNNNC-....||||||",
"|||||....#iBNNNNNNNNNNNNNNNNNNNNNNNNNNNNNDBn/EEEEEEEEEEEE~EEEEEEEEEEEEEEE~EEEEEEEEE)mNNNNNNNDNNNNNNNNDNNNNNNNNNNNNNND1....||||||",
"|||||....%uBNNNNNNNNNNNDNNNNNNNNNNNNNNNNNBZ]EEEEEEEEEEEEEEEEEEEEE~EEEEEEEEEEEEEEEEEE`aNNNNNNNNNNNNNNNNNNNNNNNNNNNNNND5....||||||",
"|||||....=CNNNNNNNNNNNNNNNNNNNNNNNNNNNCNDDcEEEEEEEEEEEEEEEEEEEEEEEEEEEEEEEEEEEEEEEEEEzDNNNNNNNNNNNNNNNNNNNNNNNNNNNNNBg.....|||||",
"|||||....=CNNNNNNNNNNNNNNNNNNNNNNNNNNDDNNZ]EEEEEEEEEEEEEEEEEEE~EEEEEEEE~EEEEEEEEEEEEE_SNNNNNNNNNNNNNNNNNNNNNNDNNDNNDBq.....|||||",
"|||||....>DNNNNNNNNNNNNNNNNNNNNNNNNNNNNNNC[~~!~!(((((~EEEEEEEEEEEEEEEEEEEEE(((((!~~(~^aNNNNNNNNNNNNNNNNNNNNNNNNNNNNNBe+....|||||",
"|||||....>ADNNNNNNNNNNNNNNNNNNDNNNNNNNNNDDannnnnnbnj`EEEEEEEEEEEEEEEEEEEEEE/cnnnnnnnnaNNDNNNNNNNNNNNNNNNNNNDNNDNNNNNBt+....|||||",
"|||||....1ABNNNNNNNNNNNNNNNNNNNNNNNNNNNNDBNBDBBBBBA}~EEEEEE~EEEEEEEEEEEEEEEE[ZBBNBBNBNNNNNNNNNDNNNNNNNNNNNNNNNNNNNNNNt@....|||||",
"|||||....1DNNNNNNNNNNDNNNDNNNNNNNNNNNNNNBDDBDBDDDDz~EEEEEEEEEEEEEEEEEEEEEEEEE}DDNNNNNNNNNNNNNNNNNNNNNNDNNNNNNNNNNNNNNt@....|||||",
"|||||....2DNNNNNNNNNNNNNNNNNNNNNNNNNNNNNNNNNNBNNDn)EEEEEEEEEEEEE~EEEE~EEEEEEE(jDNNNNNNNNNNNNNNNNNNNNNNNNNNNNNNNNNNNNBt+....|||||",
"|||||....>DNNNNNNNNNNNNNNNNNNNNNNNNNNNNNNNNNNDNNA{EEEEEEEEEW!~EEEE~)~EEEEEEEEE]ZNNNNNNNNNNNNNNNNNNNNNNNNNNNNNNNNNNNNBt@....|||||",
"|||||....>DNNNNDNNNDNNNNNNNNDNNNNNNNNNNNNNNNNNDBM)EEEEEEEEE]k(EEEE~x'~EEEEEEEE!bNNNNNNNNNNNNNNNNDNNNNNNNNNNNNNNNNDNNNr+....|||||",
"|||||....-CNNNNNNNNNNNNNNNNNNNNNNNNNNNNNNNNNNNDBcEEEEEEEEE_Mb(EEEE~hM`EEEEEEEEE9DNNNNNNNNNNNNNNNNNNNNDNNNNNNDNNNNNNNNw+....|||||",
"|||||....=VNNNNNNNNNNDNNNNDNNNNNNNNNNNNNNNNNBDBD}EEEEEEEE)bBm~EEEE~cDM`EEEEEEEE]CBDNNNNNNNNNNNNNNNNNNNNNNNNNNNNDNNNNNq.....|||||",
"|||||....&VNNNNNNNNNNNNNNNNNNNNNNNNNNNNNNNNNDNNC]EEEEEEE(hDNj~EEEE~kBDb!EEEEEEE`ZNNNNNNNNNNNNNDNNNNNNNNNNNDNNNNNNNNNDf....||||||",
"|||||....;uNNNNNNNNNNNNNNNNNNNNNNNNNNNNNNNNNDNDA`EEEEEE~kDNBj~EEEEEkBBDc(EEEEEE/aNNNNNNNNNNNNNNNNNNDNNNNNNNNNNNNNNNND6....||||||",
"|||||....@tNNNNNNNDNNNNNNNNNNDNNNNNNNNNNNNNNBDDA]EEEEE~}ANNBj~EEEEExDDBNk(EEEEE_SNNNNNNNDNNNNNNNNNNNNNNNNNNNNNNNNNNNC>....||||||",
"|||||....+qBDBNNNNNNNNNNNNNNNNNNNNNNNDDBNNNNNNNC[EEEEE{SBNNBjEEEEEEzNNNNA}~EEEE`ZNNNNNNNNNNNNDNNNNNNNNNNNNNNNNNNNBDDV=....||||||",
"||||||....5DNDNNNNNNNDNNNNDNNNNNNNNNCDBDNNNNNNNN9EEEE]SDNNNNcEEEEEEzNNNNBZ'~EEE{DNNNNNNNNNNNNNNNNNNNNNNNNNNNNNNNNDBBi#....||||||",
"||||||....,DNNNNNNNNNNNNNNNNNNNNNNNNNNNNNNNNNNDBm~EE`MDDNNNNcEEEEEEzNNNNDBS[EEEcNNNNNNNNNNNNNNNNNNNNNNNNNNNNNNNNNNDBr+....||||||",
"||||||....*VNNNNNNNNNNNNNNNNNNNNNNNNNNNNNNNDNNNBS`E/MNBNNNNNkEEEEEE}DNNNDDDM`E/MNNDNNNNNNNNNNNNNNNDNNNNNNNDNNNNNNNBDf.....||||||",
"||||||....@yBNNNNNNDNNNNNNNNNNNNNNNNNNNNNNNNNDDNDc`mDNNNDNNNxEEEEEE}NNNNNNNNn]xDNNNNNNNNNNNNNNNNNNNNNNNNNNNNNNNNNNNN1....|||||||",
"||||||.....0DNNNNNDDNNNNNNNNNNNNNNNNNNNNNNNNNNBNDDCDNNNNNNNNzEEEEEE}NNNNNNNNDZDDNNNNNDNNDNNNNNNNNNNNNDNNNNNNDNNNNNNu*....|||||||",
"|||||||....:zzzzzzzzzlzzmDNNDNNNNNNNNNNNNNNNNNNNDBBNNNDNNNNNzEEEEEE{NNNNNNNNBDDBNNNNNNNNNNNNNNNDNNNNNNZkzzzzzzzzzzz7+....|||||||",
"|||||||....oTEEEEEEEEEEE`SNNNNNNNNNNNNNNNNNNNNNNNDNNNNNNNNNNlEEEEEE}NNNNNNBDDBDDNNNNNNNNNNNNNNNNNNNNNNh(EEEEEEEEEEEJ.....|||||||",
"|||||||.....PEEEEEEEEEEE(hNNNNNNNNNNNNNNNNNCDBDBNDNNNNNNNDBD9EEEEEE{CDBDNNNNNNNNDNNNNNNNDNNNNNNNNNNNNA[EEEEEEEEEEEEo....||||||||",
"|||||||.....J~EEEEEEEEEEE]ZNNNNNNNNNNNNNNNNNDDNNNNNNNNNNNNND}EEEEEE{ADDBNDNNNNNNNNNNNNNNNNNNNNNNNNNNNm(EEEEEEEEEEEYX....||||||||",
"||||||||....oTEEEEEEEEEEE(jNNNDDNNNNNNNNNNNNNNNNNNNNNNNNNNNN}EEEEEE'NNDBNNNNNNNNNNNNNNDNNNNNNNNNNNNNA[EEEEEEEEEEEEJ.....||||||||",
"||||||||....XLEEEEEEEEEEEE]ZNNBBNNNNNNNNNNNNNNNNNNNNNNNNNNND}EEEEEE[CBNDNNNNNNNNNNNNNNNNNNNNNNNNNNNNb(EEE~EEEEEEETF....|||||||||",
"||||||||.....GTEEEEEEEEEEEEcNNBDNNNNNNNNNNNNNNNNNNNNNNNNNNDD}EEEEEE[ABDDNNNNNNNNNNNNNNNNNNNNNNNNNNNA[EEEEEEEEEEEEL.....|||||||||",
"|||||||||....XY~EEEEEEEEEEE`aNDNNNNNNNNNNNNNNNNNNNNNNNNNNNDD{EEEEEE]ADDBNNNNNNNNNNNNNNNNNNNNNNNNNNNc(EEEEEEEEEE~EG.....|||||||||",
"|||||||||.....GEEEEEEEEEEEEE}DDNNNNNNNNNNNNNNNNNNNNNNNNNNNND{EEEEEE]CBDBNNNNNNNNNNNNNNNNNNDNNNNNNNp`EEEEEEEEEEWWPX....||||||||||",
"||||||||||....XYEEEEEEEEEEEE!mNNNNNNNNNNNNNNNNNNNDNNNNNNNNND'EEEE~E^CNNNNNNNNNNNNNNNDNNNNNNNNNNNNA}EEEEEEEEEEWWRG.....||||||||||",
"||||||||||.....JEEEEEEEEEEEEE`dDNNNNNNNNNNNNNNNNNNNNNNNNBDDA'EEEEEE`ZNNNNNNNNNNNNNNNNNNNNNNNNNNNNc~EEEEEEEEEEEWIX....|||||||||||",
"|||||||||||....XPEEEEEEEEEEEEE{ANNNNNNNNNNNNNNNNNNNNNNNDDDBD[EEEEEE`ZNNNNNNNNNNNNNDNNNNNNNNNNNNNn_EEEEEE~EEEEERG.....|||||||||||",
"|||||||||||.....GEEEEEEEEEEEEEWxDNNNNNNNNNNNNNNNNNNNNNNNNNDA[EEEEEE`ZNNNNNNNNNNNNNNNDNNNDNNNNNBa]EEEEEEEEEEEEEP.....||||||||||||",
"||||||||||||.....PEEEEEEEEEEEEE(cNNNNNNNNNNNNNNNNDNNNNNNNNDA]EEEEEE`ZNNNNNNNNNNNNNNNNNNNNNNNNBZ[EEEEEEEEEEEEWRO.....||||||||||||",
"||||||||||||.....FTEEEEEEEEEEEEE!jDNNNNNNNNNNNNNNNNNNNNNNNNA]WEEEEE_SDNNNNNNNNNNNNDNNNNNNNNNNZ{~EEEEEEEEEEEERK.....|||||||||||||",
"|||||||||||||.....JEE~EEEEEEEEEEE!mDBDNNNNNNNNNNNNNNNNNNNNDA`EEEEEE_SBNBNNNNNNNNNNNNNNNNNNNNC}~EEEEEEEEEEEEWYo.....|||||||||||||",
"|||||||||||||.....XPEEEEEEEEEEEEEE/jDDNNNDNNNNNNNNNNNDNNDBDA`EEEEEE/SBDDNNNNNNNNNNNNNNNNNNNS}~EEEEEEEEEEEEERG.....||||||||||||||",
"||||||||||||||.....oEEEEEEEEEEEEEEE)kCNNNNNNNNNNNNNNNNNNNDDZ`EEEEEE/MBBDNNNNNNNNNNNNNNNNNNa'~EEEE~EEEEEEEWRK.....|||||||||||||||",
"|||||||||||||||.....HREEEEEEEEEEEEEE(zZDDNNNNNNNNNNNNNNDNNNZ`EEEEEE)aNNNNNNDNNNNNNNNNNNNDn]EEEEEEEEEEEEEEEPX.....|||||||||||||||",
"|||||||||||||||......JRWEEEEEEEEE~EEEE[MNNNNNNNNNNNNNNNNNNNV_EEEEEE)pNNNNNNNNNNNNNNNNNNAc/EEEEEEEEEEEEE~EYo.....||||||||||||||||",
"||||||||||||||||.....XLEEEEEEEEEEEEEEEE/cANNNNNNNNNNNNNNNNBa_EEEEEE)pNNNNNNNNNNNNNDNNNd}(EEEEEEEEEEEEEEETG.....|||||||||||||||||",
"|||||||||||||||||.....oPEEEEEE~EEEEEEEEE('MDNNNNNNNNNNNNNNNS_EEEEEE!pBNNNNNNNNNNNNNNAh_EEEEEEEEEEEEEEEERG......|||||||||||||||||",
"||||||||||||||||||.....oYWEEEEEEEEEEEEEEEE)zpDNNNNNNNNNNNNNS_EEEEEE(MNNNNNNNNNNNNNAm[~EEEEEEEEEEEEEEEWRJ......||||||||||||||||||",
"||||||||||||||||||......oYWEEEEEEEEEEEEEEEEE_zpDBNNNNNNNNNBa/EEEEEE)MNNNNNNNDDBNAb[(EEEEEEEEEE~EEEEEERJ......|||||||||||||||||||",
"|||||||||||||||||||......$YWEEEEEEEEEEEEEEEEEE_}nANNNNNNNNBp)EEEEEE(nBNNNNNNBDdh'(EEEEE~EEEEEEEEE~EERJX.....||||||||||||||||||||",
"||||||||||||||||||||......oIEWEEEEE~EEEEEEEEEEEE(]knADNNNNBp)EEEEEE(nBNNBNASm}_~EEEEEEEEEEEEEEEEEEERH......|||||||||||||||||||||",
"|||||||||||||||||||||......oLEEEEEEEEEEEEEEEEEEEEEE)`}jndSSb)EEEEEE(jSSpnk{_~EEEEEEEEEEEEEEEEEEEEWRG......||||||||||||||||||||||",
"||||||||||||||||||||||......XKREEEEEEEEEEEEEEEEEEEEEEE~)___)~EEEEEE~)`_)(EEEEEEEEEEEEEEEEEEEEEEEEYG......|||||||||||||||||||||||",
"|||||||||||||||||||||||.......JREEEEEE~EEEEE~EEEEEEEEEEEEEEEEEEEEEEEEEEEEEEEEEEEEEEEEEEEEEEEEEWRPo......||||||||||||||||||||||||",
"||||||||||||||||||||||||.......OIEWEEEEEEEEEEEEEEEEEEEEEEEEEEEEEEEEEEEEEEEEEEEEEEEEEEEEEEEEEWWRKX......|||||||||||||||||||||||||",
"|||||||||||||||||||||||||.......oLR~EEEEEE~EEEEEEEEEEEE~EEEEEEEEEEEEEEEEEEEEEE~EEEEEEEEEEEEWRIG.......||||||||||||||||||||||||||",
"||||||||||||||||||||||||||........GPREEEEEEEEEEEEEEEEEEEEEEEEEEEEEEEEEEEEEE~EEEEEEEEEEEEEEETKo.......|||||||||||||||||||||||||||",
"||||||||||||||||||||||||||||.......XKTEEEEEEEEEEEEEEEEEEEEEEEEEEEEEEEEEEEEEEEEEEEEEEEEEEWEP$........||||||||||||||||||||||||||||",
"|||||||||||||||||||||||||||||........OKREWEEEEEEEEEEEEEEEEEEEEEEEEEEEEEEEEEEEEEEEEEEEW~RUF........||||||||||||||||||||||||||||||",
"||||||||||||||||||||||||||||||.........oLTWWWEEE~EEEEEEEEEEEEEEEEEEEEEEEEEEEEEEEEEEWWRPGo........|||||||||||||||||||||||||||||||",
"||||||||||||||||||||||||||||||||.........oKTREWEEEEEEEEEEEEEEEEEEEEEEEEEE~EEEEEEEEETPGX........|||||||||||||||||||||||||||||||||",
"||||||||||||||||||||||||||||||||||.........oGPTRWWWEEEEEEEEEEEEEEEEEEEEEEEEEEEWERIKo..........||||||||||||||||||||||||||||||||||",
"|||||||||||||||||||||||||||||||||||..........XoGLTREEW~EEEE~EEEEEEEEEEEWEWWWRRPKOX..........||||||||||||||||||||||||||||||||||||",
"|||||||||||||||||||||||||||||||||||||............oGJPYTREEEEWWWW~WEEEEERRYPKHO............||||||||||||||||||||||||||||||||||||||",
"|||||||||||||||||||||||||||||||||||||||..............XoGHJLPPPIIIIIPLKHGOoX.............||||||||||||||||||||||||||||||||||||||||",
"||||||||||||||||||||||||||||||||||||||||||...................XXXX.X...................||||||||||||||||||||||||||||||||||||||||||",
"||||||||||||||||||||||||||||||||||||||||||||.......................................|||||||||||||||||||||||||||||||||||||||||||||",
"||||||||||||||||||||||||||||||||||||||||||||||||................................||||||||||||||||||||||||||||||||||||||||||||||||",
"||||||||||||||||||||||||||||||||||||||||||||||||||||........................||||||||||||||||||||||||||||||||||||||||||||||||||||",
"||||||||||||||||||||||||||||||||||||||||||||||||||||||||||...........|||||||||||||||||||||||||||||||||||||||||||||||||||||||||||",
"||||||||||||||||||||||||||||||||||||||||||||||||||||||||||||||||||||||||||||||||||||||||||||||||||||||||||||||||||||||||||||||||",
"||||||||||||||||||||||||||||||||||||||||||||||||||||||||||||||||||||||||||||||||||||||||||||||||||||||||||||||||||||||||||||||||",
"||||||||||||||||||||||||||||||||||||||||||||||||||||||||||||||||||||||||||||||||||||||||||||||||||||||||||||||||||||||||||||||||",
"||||||||||||||||||||||||||||||||||||||||||||||||||||||||||||||||||||||||||||||||||||||||||||||||||||||||||||||||||||||||||||||||",
"||||||||||||||||||||||||||||||||||||||||||||||||||||||||||||||||||||||||||||||||||||||||||||||||||||||||||||||||||||||||||||||||"
};
