/* XPM */
static char *bitcoin32[] = {
/* columns rows colors chars-per-pixel */
"32 32 213 2 ",
"   c #9F55256A7474",
".  c #9FBF263E7449",
"X  c #9FE829A3722C",
"o  c #A045274A7415",
"O  c #A10F28CB73D1",
"+  c #A07829CD7297",
"@  c #A1502A0D7338",
"#  c #A2352A5373E1",
"$  c #A2A52A69743C",
"%  c #A3262A9B7494",
"&  c #A32B2AB17489",
"*  c #A3DE2AD3751D",
"=  c #A4902B08759F",
"-  c #A4B82ABD75F8",
";  c #A5DF2B7D768F",
":  c #A6E32BB97758",
">  c #A77A2BEC77CC",
",  c #A9642C807937",
"<  c #AA582CC979E9",
"1  c #ADD62DD87C81",
"2  c #AF2C2E407D7F",
"3  c #AFD22E757DFD",
"4  c #AFFA2E7F7E19",
"5  c #B1B92F087F66",
"6  c #AB403AC97169",
"7  c #ACE93E7A7081",
"8  c #B2FD48E96F45",
"9  c #B77156616A7D",
"0  c #B8F7597F69D8",
"q  c #B0F043E270B3",
"w  c #C05C689066C5",
"e  c #C1616AA56659",
"r  c #C2266C3E6602",
"t  c #C2516CA065EA",
"y  c #C65875D2638F",
"u  c #C6AD76876369",
"i  c #CB077EAA621A",
"p  c #E82D7B227FF9",
"a  c #E8B37F797D8C",
"s  c #E86C7D087EEF",
"d  c #E8767E637E0B",
"f  c #D07189F45FAD",
"g  c #D0D98A965FA4",
"h  c #EFFEB6F35F74",
"j  c #F022B7E55EF1",
"k  c #F10ABEA75B46",
"l  c #F0BBBC1F5CA5",
"z  c #F096BB385D14",
"x  c #F09EBB7C5CFE",
"c  c #F0C1BC875C6E",
"v  c #F0EBBD645BFB",
"b  c #CBFC80CD6194",
"n  c #E23F8C976EAE",
"m  c #E6EA92DD6EE9",
"M  c #E5639A7C6853",
"N  c #ECFF9FFC6BDE",
"B  c #EC0998C16FD3",
"V  c #EC359A106F1D",
"C  c #EC379A4C6EFB",
"Z  c #EC719C566DD9",
"A  c #ECCA9E766CBB",
"S  c #EA508B707720",
"D  c #EA6C8C4676AC",
"F  c #E92D82787BEA",
"G  c #E9C887B97918",
"H  c #E981855E7A63",
"J  c #E9E2888F7899",
"K  c #EBBF96B170F5",
"L  c #EC4E98AD7024",
"P  c #EC9B9923701C",
"I  c #EE11A7DD679D",
"U  c #EF0FAF8E6375",
"Y  c #EE21A8636761",
"T  c #EEC3AD6A649D",
"R  c #E9B1A1066807",
"E  c #ED86A30F6A4D",
"W  c #EDABA513691A",
"Q  c #EE26A6D26861",
"!  c #EF9CB3D76123",
"~  c #EF54B1786273",
"^  c #EF7BB2376204",
"/  c #EFDEB6045FF4",
"(  c #F178D0924FC4",
")  c #F212D1D94F7C",
"_  c #F3DED4274FAD",
"`  c #F419D5FD4EAD",
"'  c #F3F5D4DD4F4B",
"]  c #F40DD5984EE4",
"[  c #F437D6CC4E3E",
"{  c #F453D7794DE6",
"}  c #F477D7D64DCA",
"|  c #F4B4D6504F05",
" . c #F54FD7994EBE",
".. c #F4FDD6DF4EEB",
"X. c #F1FAC59F5787",
"o. c #F247C7F9563E",
"O. c #F223C6D056EA",
"+. c #F2E2CCBB53A5",
"@. c #F329CEC35292",
"#. c #F347CFA85213",
"$. c #F25FC8C555CD",
"%. c #F27BC9AE5548",
"&. c #F2B7CB255488",
"*. c #F2C9CBC65433",
"=. c #F29ACA5954F4",
"-. c #F258C88A55ED",
";. c #F169C16259D0",
":. c #F172C1A059AE",
">. c #F1B7C3D1587B",
",. c #F191C2A9591E",
"<. c #F149C08A5A38",
"1. c #F1D7C4A4580C",
"2. c #F399D22B50BC",
"3. c #F388D1B250FB",
"4. c #F3B2D2E65053",
"5. c #F3D2D3CA4FDD",
"6. c #B2F52F69804F",
"7. c #B3942F9780C4",
"8. c #B4072FB6811A",
"9. c #B5AD303B8252",
"0. c #B7063092835D",
"q. c #B8BD312B8498",
"w. c #B9D631828568",
"e. c #BAF531D78641",
"r. c #BD23327F87DB",
"t. c #BDA132958848",
"y. c #BDFC32C9887E",
"u. c #BF6A3333897E",
"i. c #C023336E8A14",
"p. c #C07633878A4F",
"a. c #C13433C18ADB",
"s. c #C15433CD8AF7",
"d. c #C50034E48DAF",
"f. c #C69535688EDE",
"g. c #C8C0359C90C7",
"h. c #C8D3361B908A",
"j. c #CADB36AC9206",
"k. c #CB5436DD9262",
"l. c #CC923740934E",
"z. c #CF7E37B295BE",
"x. c #CBA039039130",
"c. c #D000384E95D9",
"v. c #D1FD3B3195C1",
"b. c #D1B338D4971C",
"n. c #D2AA392097D4",
"m. c #D5A63A0F9A0D",
"M. c #D72D3A859B2C",
"N. c #D8803AEE9C27",
"B. c #D9FF3B659D44",
"V. c #DB513BCD9E3E",
"C. c #DC243C0F9EDB",
"Z. c #DCE93C4D9F6E",
"A. c #DDB53C8BA005",
"S. c #DFA23B4FA2B1",
"D. c #DF733A06A360",
"F. c #DE213CAEA056",
"G. c #DEA83CADA0D7",
"H. c #DE863CCEA0A0",
"J. c #DFCF3CADA1ED",
"K. c #DF473D0CA12D",
"L. c #DFEC3D15A1C7",
"P. c #E00B3E73A0F1",
"I. c #E0333F80A05D",
"U. c #DFCB3C29A246",
"Y. c #E0503CE6A249",
"T. c #E0683D5FA20C",
"R. c #E0C03D76A24F",
"E. c #E4625E998F83",
"W. c #E47A5FB38ED7",
"Q. c #E2564F5C97BF",
"!. c #E070415B9F5F",
"~. c #E08D42319EEA",
"^. c #E10945BC9CFE",
"/. c #E0CD43FA9DF1",
"(. c #E0F645289D45",
"). c #E128467B9C92",
"_. c #E1C24B2D9A04",
"`. c #E184498D9AE4",
"'. c #E14A47DA9BD0",
"]. c #E1A24A4A9A7D",
"[. c #E20B4D5398D9",
"{. c #E1E34C4C9960",
"}. c #E2234E1C986B",
"|. c #E33A56219402",
" X c #E34D56FA938A",
".X c #E2D9534C95A4",
"XX c #E27C509D970D",
"oX c #E291514196B6",
"OX c #E26F50389743",
"+X c #E2B152279640",
"@X c #E2F8546394FC",
"#X c #E31055549469",
"$X c #E2F653E59548",
"%X c #E3F95BB49109",
"&X c #E3F15B749128",
"*X c #E37C5802930C",
"=X c #E3A55942925C",
"-X c #E6646E5186E0",
";X c #E54D65E28B78",
":X c #E57767148AD3",
">X c #E55366108B57",
",X c #E4C161B28DC2",
"<X c #E4EC630B8D03",
"1X c #E5C16953899C",
"2X c #E5F46AB388D8",
"3X c #E6036B318899",
"4X c #E5A768478A2F",
"5X c #E74774C78368",
"6X c #E6BD70E58578",
"7X c #E6F9724184CA",
"8X c #E7C078B98125",
"9X c #E1284038A0CD",
"0X c None",
/* pixels */
"0X0X0X0X0X0X0X0X0X0X0X0X0X0X0X0X0X0X0X0X0X0X0X0X0X0X0X0X0X0X0X0X",
"0X0X0X0X0X0X0X0X0X0X0X0X0XX + @ @ + X 0X0X0X0X0X0X0X0X0X0X0X0X0X",
"0X0X0X0X0X0X0X0X0X0X+ ; 2 w.a.d.d.p.q.1 = + 0X0X0X0X0X0X0X0X0X0X",
"0X0X0X0X0X0X0X0X+ , y.b.C.L.R.R.R.R.K.V.c.e.> + 0X0X0X0X0X0X0X0X",
"0X0X0X0X0X0X0X* w.m.L.R.U.S.S.S.S.S.S.Y.R.K.n.9.$ 0X0X0X0X0X0X0X",
"0X0X0X0X0X0X: f.H.T.U.J.{.;Xs J G p <X`.U.U.R.Z.s.= 0X0X0X0X0X0X",
"0X0X0X0X0X: j.L.L.U.+XS x #.] [ [ ] @.j H }.S.L.K.d.= 0X0X0X0X0X",
"0X0X0X0X* f.L.J.P.6Xc ` [ ' ' ' ' ' ] [ ] h 1XL.L.K.i.# 0X0X0X0X",
"0X0X0X+ w.H.L.P.d +.[ ' ' ' ' ' ' ' ' ' ' [ $.5XL.L.C.7.+ 0X0X0X",
"0X0X0X, m.T.U.6X+.` ' ' ' ` ] ' ' ' ` ' ' ' ` o.:XS.R.c.; 0X0X0X",
"0X0X+ y.L.U.+Xc [ ' ' ' @.X.@.` ` @.X.@.' ' ' [ ! _.U.G.0.+ 0X0X",
"0X0X; v.9XI.D ` ' ' ' 4.J XX1X! / 2XXXH 4.' ' ' ' a P.9Xx.& 0X0X",
"0X0X8 R Q I -.] ' ' ' [ ^ |.D.OXoXD.$XU [ ' ' ' ] 1.Q Q M 7 0X0X",
"0X  r [ { { ] ' ' ' 2.A 3XOXL.U.U.L.Q.2XZ 3.' ' ' ] { { ) 0 0X0X",
"0Xo b ..' ' ' ' ' [ Y ).J.J.L.L.L.L.J.J.(.W [ ' ' ' ' ' ' t   0X",
"0XO g  .' ' ' ' ' ] v E H ~.U.J.J.U.!.F E l ] ' ' ' ' ' | u . 0X",
"0XO f  .' ' ' ' ' ' ` 5.7XD.[.].`.}.D.-X2.[ ' ' ' ' ' ' | y . 0X",
"0Xo i ..' ' ' ' ' ' ] O..X'.A E.&XN ].OX1.` ' ' ' ' ' ' ' e   0X",
"0X  w ` { { ] ' ' ' ] *.4XK +.%X*X&.C >X=.] ' ' ' ` { } ( 9 0X0X",
"0X0Xq m L V >.` ' ' ' _ :.3.&.=X|.%.4.;.5.' ' ' ` k B P n 6 0X0X",
"0X0X- z.R.U.H ] ' ' ' ' ` ` %. X@Xo.` ` ' ' ' ' 4.8XS.R.g.$ 0X0X",
"0X0X+ e.K.U.}.h [ ' ' ' ' ] -.#X+XX.] ' ' ' ' [ T '.J.A.8.+ 0X0X",
"0X0X0X> n.R.S.1X$.` ' ' ' ] O..XOX>.` ' ' ' [ ,.W.S.R.l.= 0X0X0X",
"0X0X0X+ 9.Z.L.L.5Xo.[ ' ' ` 1.oX}.,.` ' ' [ ,.3XU.T.B.4 + 0X0X0X",
"0X0X0X0X$ s.K.L.L.:X! ' [ [ >.Q.{.<.[ [ 4.T W.U.L.A.e.@ 0X0X0X0X",
"0X0X0X0X0X= d.K.L.S._.a ~ *.k [._.z =.T 8X'.S.T.A.u.% 0X0X0X0X0X",
"0X0X0X0X0X0X= i.C.R.U.S.^.%X<X~.!.,X=X/.S.J.R.B.e.% 0X0X0X0X0X0X",
"0X0X0X0X0X0X0X# 7.c.H.R.Y.S.S.L.L.S.S.Y.R.A.l.3 @ 0X0X0X0X0X0X0X",
"0X0X0X0X0X0X0X0X+ ; 0.k.N.F.L.T.T.L.A.M.h.8.= + 0X0X0X0X0X0X0X0X",
"0X0X0X0X0X0X0X0X0X0X+ % < 6.w.t.r.q.5 , $ + 0X0X0X0X0X0X0X0X0X0X",
"0X0X0X0X0X0X0X0X0X0X0X0X0X0XX + + X 0X0X0X0X0X0X0X0X0X0X0X0X0X0X",
"0X0X0X0X0X0X0X0X0X0X0X0X0X0X0X0X0X0X0X0X0X0X0X0X0X0X0X0X0X0X0X0X"
};
