/* XPM */
static char *bitcoin64[] = {
/* columns rows colors chars-per-pixel */
"64 64 73 1 ",
"  c #AC9F3F156FD8",
". c #A06227A373F7",
"X c #A1DF2A2A73AD",
"o c #AC1D2D447B3C",
"O c #B0F82EB77EDC",
"+ c #A68133C6719D",
"@ c #A86734EE72A1",
"# c #AAE839C171C1",
"$ c #AFE846D06DC5",
"% c #B2204B556CD4",
"& c #B62952486BFA",
"* c #B335439172FF",
"= c #BFC2666E6795",
"- c #C3226D186650",
"; c #C73675F9643D",
": c #DC66762C77EE",
"> c #E7917D897DA7",
", c #E8917D9D7E7F",
"< c #D3EE8F185F71",
"1 c #D7DE96F15DEE",
"2 c #D9CF9B025D0C",
"3 c #DFE7A87459DE",
"4 c #E1AFACBA58B4",
"5 c #E487B423566F",
"6 c #E959BBC555E8",
"7 c #F040B7B85F09",
"8 c #F045B9305E12",
"9 c #F0D1BCD55C2E",
"0 c #CD90828F61D3",
"q c #D08B88FE6057",
"w c #EC869C7F6DB3",
"e c #EA698BD576CC",
"r c #E96584017B02",
"t c #EA0188C27874",
"y c #EB7894107248",
"u c #EE7FAB2065CF",
"i c #ED89A3FF69A6",
"p c #EF88B26061F1",
"a c #F3FED50E4F33",
"s c #ED32C47753BA",
"d c #EF4DCA9551AB",
"f c #F221C69356F4",
"g c #F2EACD7A5323",
"h c #F185C26E5925",
"j c #F3A0D2545099",
"k c #B3532F778098",
"l c #B66A305D82DB",
"z c #BBB331FF86C9",
"x c #BEC932EB8900",
"c c #C3CC344A8CF1",
"v c #CAE23687921D",
"b c #CF763811956D",
"n c #D1CF38C9972B",
"m c #D20736D698A8",
"M c #D51339CD999C",
"N c #DB833BD49E62",
"B c #DFD23CD1A1DC",
"V c #E0983D61A237",
"C c #D57D5C1982E8",
"Z c #E05740689FE1",
"A c #E4685E938F55",
"S c #E25A4F5E97B1",
"D c #E0D343F19DF1",
"F c #E1C74B149A03",
"G c #E2F653EE9533",
"H c #E3EA5AE4916C",
"J c #DFA763DF8753",
"K c #E67B6E6186CB",
"L c #E52E64968C1C",
"P c #E5EB6995897D",
"I c #E74A744D838F",
"U c #E82779EC8090",
"Y c None",
/* pixels */
"YYYYYYYYYYYYYYYYYYYYYYYYYYYYYYYYYYYYYYYYYYYYYYYYYYYYYYYYYYYYYYYY",
"YYYYYYYYYYYYYYYYYYYYYYYYYYYYYYYYYYYYYYYYYYYYYYYYYYYYYYYYYYYYYYYY",
"YYYYYYYYYYYYYYYYYYYYYYYYYYYYYXXXXXXYYYYYYYYYYYYYYYYYYYYYYYYYYYYY",
"YYYYYYYYYYYYYYYYYYYYYYYYXXXXXXX.XX.XXXXXYYYYYYYYYYYYYYYYYYYYYYYY",
"YYYYYYYYYYYYYYYYYYYYYXXXXXXXooolOoooXXXXXXXYYYYYYYYYYYYYYYYYYYYY",
"YYYYYYYYYYYYYYYYYYYXXXXXOzvnMNNBNNNMnczOXXXXXYYYYYYYYYYYYYYYYYYY",
"YYYYYYYYYYYYYYYYYXXXXOcnNBVVVZBVBBBVBBNNbzoXXXXYYYYYYYYYYYYYYYYY",
"YYYYYYYYYYYYYYYXXXXOvNVVZBBBVBBBBBBZBBBZZBMcoXXXXYYYYYYYYYYYYYYY",
"YYYYYYYYYYYYYYXXXovNVBBBBBBBBBBBBBBBBBBBBZBVNxo.XXYYYYYYYYYYYYYY",
"YYYYYYYYYYYYYXXXzNBBBBBBBBBBBBBBBBBBBBBBBBBBVBblXXXYYYYYYYYYYYYY",
"YYYYYYYYYYYYXXocNVBBZBBBBBBBZFSGSSFZBBBBBZBBBBBNxXXXYYYYYYYYYYYY",
"YYYYYYYYYYYXXonVBZBBBBBBBGIyuphhhhpitKSBBBBBBBBBBvXXXYYYYYYYYYYY",
"YYYYYYYYYYXXoMBBBBBBBBDKihaaaaaajaaaajhwLZBBBBBBZBvX.XYYYYYYYYYY",
"YYYYYYYYYXXoMVBBBBBBZKujaaaaaaaaajaaaaaagiLZBBBBBBVvoXXYYYYYYYYY",
"YYYYYYYYXXobZNBBBBBGwgaaaaaaaaaaaaaaaaaajageFBBBBBVBcXXXYYYYYYYY",
"YYYYYYYXXXvVVBBBBBP8aaaaaaaaaaajaaaaaaaajjjauHBBBBBZNzXXYYYYYYYY",
"YYYYYYYXXxBBBBBBBIfaaaaaaaaaaaaaaaaaaaaaaaaaa9LBBBBBVNo..YYYYYYY",
"YYYYYYXXoMBBZBBBIgaaaaaaaaaajaaaaaaaaaaaaaaaaa9LBBZBBVboXXYYYYYY",
"YYYYYYXXvBBBBBBPfaaaaaaaaaaaaaaaaajaaaaaaaaaaaa9GBBBBBBzXXYYYYYY",
"YYYYYXXONBBBBBG8aaaaaaaaaaaaaaaaajaaaaaaajajaaaaiFBBBBVmXXXYYYYY",
"YYYYYXXvBBBBBZwaaaaaaaaaaaaaaaaaaaaaaaaaaaaaaaaajtBBBBBBxXXYYYYY",
"YYYYXXoNBBBBBIdajaaaaajaagffjaaaaaajhfjaaaaaaaaaahHBBBBVnXXXYYYY",
"YYYYXXcBBBBBZuaaaaaaaaaauIGGPwgajjiPGGKuaaaaaaaajawZBBBBBlXXYYYY",
"YYYYXXmVBBBBKjaaaaaaaaaayBBBBD>ggrZBBBBeaajaaajaaahHBBBBBcXXYYYY",
"YYYX.*rrrrrrpaaaaaaaaaaajtZBZBBIUBBBBZrgaaaaaaaaaaairtrtr:+XYYYY",
"YYYXX;aaaaaaaaaaaaaaaaaaaaeZBBBBBBBBDtjaajaaaaaaaaaajajaad&XXYYY",
"YYYXX1aaaaaaaaaaaajaaaa8y>USBBBBBBBBFI>y9jajajaaaaaajaaaaa;XXYYY",
"YYYX+5aaaaaaaaagaaaaaawGBBBBBBBBBBBBBBBBGwjaaaaaaaajaaaaaa0XXYYY",
"YYYX#6aaaaaaaaaaaaaaaiZBBBBBBBZBBZBVBBBBBDwjaaaaajaaaaaaaa2XXYYY",
"YYXX$daaaaaajaaaaaaagLBBBBBBBBBBBBBBBBBBBVHgaaaaaaaaaaaaaa4+XYYY",
"YYX.&daaaaaaaaaaaaaagtU,UIDBBBBBBBBBBDKUUUtgaaaaaaaaaaaaaa5+XYYY",
"YYXX&gaaaaaaaaaajaaaaaaajrBBZBBBBBBBBB,gaajaaaajaaaaaaaaaa5#XYYY",
"YYX.&gaajaaaaaaaaaaaaaaauDBBBBZBBDBBBBDiaaaaaaaaaaaaaaaaaa5#.YYY",
"YYX.&gaaaaaaaaaaaajaaaajUBBBBKPBBPIBBBBKjaaaaaaaaajaaaaaaa5@XYYY",
"YYX.$saaaaaaajaaaaaaaaagHBBBL9IBBKhPBBBGfaaaaaaaaaaaaaaaaa3+XYYY",
"YYY.#6aaaaaaaaajaaaaaaahGBBG8aKBBPj8HBBGhaaaaaajaaaaaaaaaa2XXYYY",
"YYYX@3jaaaaaaaaaaajaaaajLBFuajIBBPjauGBHgajaaaaaaaaaaaaaja0XXYYY",
"YYYXXqaaaaaaaaaaaaaajaaarDijjjKBBLjaaiFUjaaaaaaajaaaaaaaaj=.XYYY",
"YYYXX-gggjjjaaaaaaaaaaaa9ujjjjLBBLgaaai8aaaaaaaaaaaaggjgjs%.XYYY",
"YYYXX#JPPLPLiaaaaaaaaaaaaajjjgLBBAgaaaaaaaaaajjaaaaeLPLPLC+XYYYY",
"YYYYXXbBBBBBLgaajajaaaaaaaaaajLBBHgjaaaaaaaaaaaaaa9SBBBBVcXXYYYY",
"YYYYXXxBBBBBZwaaaaaaaaaaaaaajgLBBHgaaaaaajaaaaaaaatBBBBVBoXXYYYY",
"YYYYXXoMVBBZBLhaaaaaaaaajaaaagLBBHfaaaaaaaaaaaaaa9SBBBVVvXXYYYYY",
"YYYYYXXcVBBBBBejaaaaaajaaaaaagHBBHfajaaajaaaajaajIBBBBVNkXXYYYYY",
"YYYYYXXoMBBBBBFuaaaaaaaajaaajgHBBGfaaaaaaajaaaaayZBBBBVvXXXYYYYY",
"YYYYYYXXxBBBBBBHhaaaaajaaaaaahHBBGfaaaaaaaaaaaauSBBBBVNlXXYYYYYY",
"YYYYYYXXobBBBBBBLhaaaaaaaaaaagGBBShaaajaaaaaaapGBBBBBBcXXYYYYYYY",
"YYYYYYYX.kBBBBBBBL8aaaaaaaajahGBBS9aaaaaaaaaauGBBBBBBMoXXYYYYYYY",
"YYYYYYYXXXcBVBBBBBHujaaaaaaaafGBBShaaaaaaaagySBBBBBZNOXXYYYYYYYY",
"YYYYYYYYXXXcBBBBBZBZrhaaaaaaahGBBS9aajaaaj9IZBBBBBVNzXXXYYYYYYYY",
"YYYYYYYYYXXXvBVBBBBBBHyfaaaaahGBBD8aaaaahtGBBBBBVVBxXXXYYYYYYYYY",
"YYYYYYYYYYXXXvBZBBBBBBZHtpgaa9SBBF8ajgu>GBBBBBVVVNxXXXYYYYYYYYYY",
"YYYYYYYYYYYXXXcVBBBBBBBBBZHUt,DBBDUtIGZBBBBBVVBZNzXXXYYYYYYYYYYY",
"YYYYYYYYYYYYXXXxNBBZBBBBNBBBBBBBBBBBBBBZBBBBVVVnOXXXYYYYYYYYYYYY",
"YYYYYYYYYYYYYXXXObBBZBBBZBVBBBBBBBBBBBBBBBBBVNcoXXXYYYYYYYYYYYYY",
"YYYYYYYYYYYYYYXXXXzMBVBBVBBBBBBBBBBBBZBBBBBBvlXXXXYYYYYYYYYYYYYY",
"YYYYYYYYYYYYYYYYXXXXxnBZVVBVBBBBBBVBBBBZZNvlXXXXYYYYYYYYYYYYYYYY",
"YYYYYYYYYYYYYYYYYXXXXXlcMNBVVZVBVVVVVBNnxOXXXXYYYYYYYYYYYYYYYYYY",
"YYYYYYYYYYYYYYYYYYYXXXXXXlxcvnnMMnbvczoXX.XXXYYYYYYYYYYYYYYYYYYY",
"YYYYYYYYYYYYYYYYYYYYYXXXXXXXXXoXXoXX.XXXXXYYYYYYYYYYYYYYYYYYYYYY",
"YYYYYYYYYYYYYYYYYYYYYYYYYXXXXXXXXXXXXXXYYYYYYYYYYYYYYYYYYYYYYYYY",
"YYYYYYYYYYYYYYYYYYYYYYYYYYYYYYYYYYYYYYYYYYYYYYYYYYYYYYYYYYYYYYYY",
"YYYYYYYYYYYYYYYYYYYYYYYYYYYYYYYYYYYYYYYYYYYYYYYYYYYYYYYYYYYYYYYY",
"YYYYYYYYYYYYYYYYYYYYYYYYYYYYYYYYYYYYYYYYYYYYYYYYYYYYYYYYYYYYYYYY"
};
