/* XPM */
static char *bitcoin16[] = {
/* columns rows colors chars-per-pixel */
"16 16 117 2 ",
"   c #A9C62C1479DF",
".  c #A9FF2CB879A7",
"X  c #AFCC2E837DEE",
"o  c #B1A92F127F51",
"O  c #CFAB7E846694",
"+  c #CE667A326846",
"@  c #D9D29EE05A9A",
"#  c #DA109F525A89",
"$  c #DDBEA6ED58F0",
"%  c #DDFBA75B58E1",
"&  c #F0F2BE0C5BA3",
"*  c #F154B9CB5ED1",
"=  c #F114B8FB5F20",
"-  c #F0D0BD265C1E",
";  c #D21F807F6797",
":  c #D367851665B8",
">  c #EC2999156FCF",
",  c #EC649B4F6E79",
"<  c #EC959CA66DC6",
"1  c #EA218A5B77BA",
"2  c #EA4C8BB476FA",
"3  c #EAC98E1675D5",
"4  c #EAF38F557528",
"5  c #EA598C1276BC",
"6  c #EA888D7975FE",
"7  c #E8C480367D2C",
"8  c #E90C824B7C11",
"9  c #E9D9884B78D3",
"0  c #EB3C91AA73DF",
"q  c #EB7693497300",
"w  c #EBAB954471E6",
"e  c #EBF897A67095",
"r  c #EB89943F7274",
"t  c #EE82AB8565AF",
"y  c #EE46A9D4669E",
"u  c #EE37A93B66F7",
"i  c #EE59AA6D664A",
"p  c #EECFADD16476",
"a  c #ED3EA1EF6AE5",
"s  c #ED5BA2C86A6B",
"d  c #EF52B1F8622A",
"f  c #F038B30A624C",
"g  c #F083B3F561F7",
"h  c #F454D7B24DC1",
"j  c #F41CD60B4EA6",
"k  c #F3F9D4FC4F39",
"l  c #F408D5734EF9",
"z  c #F43AD6EB4E2C",
"x  c #F46FD87C4D53",
"c  c #F573D94A4DC0",
"v  c #F58AD99C4D9F",
"b  c #F241C7CC565F",
"n  c #F217C6AA56F8",
"m  c #F300CDA45331",
"M  c #F32ECEF2527E",
"N  c #F357D02751D6",
"B  c #F2C8CBF6541B",
"V  c #F1A1C33C58D5",
"C  c #F187C262594A",
"Z  c #F153C0DF5A19",
"A  c #F1CDC4855822",
"S  c #F35FD06151B6",
"D  c #F3C6D37A5009",
"F  c #B3AA2FAB80D0",
"G  c #B3C12FB280E1",
"H  c #B701308E8364",
"J  c #B77633F2818A",
"K  c #B82D30E38445",
"L  c #B8E9361E8172",
"P  c #BA5335048388",
"I  c #BBB737458356",
"U  c #B9D3315A8585",
"Y  c #BAFC31AF8667",
"T  c #C4BC33C78E3C",
"R  c #C57D33F48ED4",
"E  c #C7C134839099",
"W  c #C86734A59120",
"Q  c #CB1535849316",
"!  c #CB0B35D992D4",
"~  c #CBCF3637934E",
"^  c #CCD6360A9465",
"/  c #CDCF369094F7",
"(  c #CDDB363F9539",
")  c #CE8935AB963F",
"_  c #CF8B368396A7",
"`  c #CF8A37019651",
"'  c #D23A37D1984E",
"]  c #D445386499DB",
"[  c #D63A38F89B52",
"{  c #DCC23C829F25",
"}  c #DD6C3D2D9F54",
"|  c #DE293DF69F82",
" . c #DEB73EAF9F8C",
".. c #DFA43B7EA294",
"X. c #DD8A42369C0C",
"o. c #DE90458D9AC6",
"O. c #DFCF46EF9B09",
"+. c #DEED43919C75",
"@. c #E46E5F4C8F16",
"#. c #E10045AF9D04",
"$. c #E10545D79CEF",
"%. c #E2BA4B449AEA",
"&. c #E30D4EB298ED",
"*. c #E32D4F7B9886",
"=. c #E2BD4C559A38",
"-. c #E296514B96B6",
";. c #E275506B972C",
":. c #E399526196FB",
">. c #E3CA53A49650",
",. c #E38951E29741",
"<. c #E4EF633D8CED",
"1. c #E516643C8C6A",
"2. c #E628657A8CA0",
"3. c #E63866068C51",
"4. c #E5DC69EA894C",
"5. c #E5A868828A14",
"6. c None",
/* pixels */
"6.6.6.6.6.6.6.6.6.6.6.6.6.6.6.6.",
"6.6.6.6.. Y W ) ) E U 6.6.6.6.6.",
"6.6.6.G `  .>.3.2.:.| / o 6.6.6.",
"6.6.F [ ,.e A S N V r *.] o 6.6.",
"6.  _ ,.d z h z z h z p &.^ 6.6.",
"6.I O.> z D s y i a D z q o.L 6.",
"6.: * M j & 4.#.$.5.- j m = O 6.",
"6.% c l k < -.....;., k l v # 6.",
"6.$ v l l b 1.@.@.<.n l l v @ 6.",
"6.; g m j B t 6 5 t B j B f + 6.",
"6.P +.w z k x 6 2 x l j 4 X.J 6.",
"6.6.( *.p z x 1 9 x j u =.Q 6.6.",
"6.6.o ] &.0 C 8 7 Z 3 =.' X 6.6.",
"6.6.6.o ^ } *.%.%.&.{ ! X 6.6.6.",
"6.6.6.6.6.K R ~ ~ T H 6.6.6.6.6.",
"6.6.6.6.6.6.6.6.6.6.6.6.6.6.6.6."
};
